<svg width="360" height="800" viewBox="0 0 360 800" fill="none" xmlns="http://www.w3.org/2000/svg">
<path fill-rule="evenodd" clip-rule="evenodd" d="M178.5 63C246.707 63 302 27.4066 302 -16.5C302 -60.4066 246.707 -96 178.5 -96C122.617 -96 75.4033 -72.1073 60.1657 -39.3252C53.676 -40.4216 46.9274 -41 40 -41C-10.8102 -41 -52 -9.88379 -52 28.5C-52 66.8838 -10.8102 98 40 98C78.3029 98 111.139 80.3173 124.983 55.1684C141.174 60.1875 159.327 63 178.5 63Z" fill="#BAC5FE"/>
<path fill-rule="evenodd" clip-rule="evenodd" d="M315.5 819C383.707 819 439 783.407 439 739.5C439 695.593 383.707 660 315.5 660C259.617 660 212.403 683.893 197.166 716.675C190.676 715.578 183.927 715 177 715C126.19 715 85 746.116 85 784.5C85 822.884 126.19 854 177 854C215.303 854 248.139 836.317 261.983 811.168C278.174 816.188 296.327 819 315.5 819Z" fill="#BAC5FE"/>
</svg>
